<mxfile host="app.diagrams.net" agent="Mozilla/5.0 (Windows NT 10.0; Win64; x64) AppleWebKit/537.36 (KHTML, like Gecko) Chrome/141.0.0.0 Safari/537.36" version="28.2.8">
  <diagram name="Page-1" id="l6qfCs7JSW2xHIwKro7T">
    <mxGraphModel dx="1426" dy="777" grid="1" gridSize="10" guides="1" tooltips="1" connect="1" arrows="1" fold="1" page="1" pageScale="1" pageWidth="850" pageHeight="1100" math="0" shadow="0">
      <root>
        <mxCell id="0" />
        <mxCell id="1" parent="0" />
        <mxCell id="ntl_dSQ6v-YphLen_f3W-10" value="" style="shape=flexArrow;endArrow=classic;html=1;rounded=0;exitX=0.25;exitY=1;exitDx=0;exitDy=0;entryX=0;entryY=0;entryDx=0;entryDy=0;fillColor=light-dark(#60a917, #000000);strokeColor=#2D7600;" edge="1" parent="1" source="-IBQ6_1v04HYc0TYOD2F-17" target="ntl_dSQ6v-YphLen_f3W-4">
          <mxGeometry width="50" height="50" relative="1" as="geometry">
            <mxPoint x="400" y="530" as="sourcePoint" />
            <mxPoint x="450" y="480" as="targetPoint" />
          </mxGeometry>
        </mxCell>
        <mxCell id="ntl_dSQ6v-YphLen_f3W-9" value="" style="shape=flexArrow;endArrow=classic;html=1;rounded=0;entryX=0.292;entryY=0.167;entryDx=0;entryDy=0;entryPerimeter=0;fillColor=light-dark(#60a917, #000000);strokeColor=#2D7600;" edge="1" parent="1" source="-IBQ6_1v04HYc0TYOD2F-19" target="ntl_dSQ6v-YphLen_f3W-4">
          <mxGeometry width="50" height="50" relative="1" as="geometry">
            <mxPoint x="400" y="530" as="sourcePoint" />
            <mxPoint x="450" y="480" as="targetPoint" />
          </mxGeometry>
        </mxCell>
        <mxCell id="ntl_dSQ6v-YphLen_f3W-8" value="" style="shape=flexArrow;endArrow=classic;html=1;rounded=0;exitX=0.5;exitY=1;exitDx=0;exitDy=0;entryX=0.567;entryY=-0.017;entryDx=0;entryDy=0;entryPerimeter=0;fillColor=light-dark(#60a917, #000000);strokeColor=#2D7600;" edge="1" parent="1" source="-IBQ6_1v04HYc0TYOD2F-20" target="ntl_dSQ6v-YphLen_f3W-4">
          <mxGeometry width="50" height="50" relative="1" as="geometry">
            <mxPoint x="400" y="530" as="sourcePoint" />
            <mxPoint x="450" y="480" as="targetPoint" />
          </mxGeometry>
        </mxCell>
        <mxCell id="ntl_dSQ6v-YphLen_f3W-5" value="" style="shape=flexArrow;endArrow=classic;html=1;rounded=0;entryX=1;entryY=0;entryDx=0;entryDy=0;exitX=0.5;exitY=1;exitDx=0;exitDy=0;fillColor=light-dark(#60a917, #000000);strokeColor=#2D7600;" edge="1" parent="1" source="-IBQ6_1v04HYc0TYOD2F-22" target="ntl_dSQ6v-YphLen_f3W-4">
          <mxGeometry width="50" height="50" relative="1" as="geometry">
            <mxPoint x="700" y="470" as="sourcePoint" />
            <mxPoint x="750" y="420" as="targetPoint" />
          </mxGeometry>
        </mxCell>
        <mxCell id="ntl_dSQ6v-YphLen_f3W-7" value="" style="shape=flexArrow;endArrow=classic;html=1;rounded=0;entryX=1;entryY=0.633;entryDx=0;entryDy=0;entryPerimeter=0;fillColor=light-dark(#60a917, #000000);strokeColor=#2D7600;" edge="1" parent="1" source="-IBQ6_1v04HYc0TYOD2F-13" target="ntl_dSQ6v-YphLen_f3W-4">
          <mxGeometry width="50" height="50" relative="1" as="geometry">
            <mxPoint x="400" y="530" as="sourcePoint" />
            <mxPoint x="450" y="480" as="targetPoint" />
          </mxGeometry>
        </mxCell>
        <mxCell id="-IBQ6_1v04HYc0TYOD2F-8" value="" style="endArrow=none;dashed=1;html=1;dashPattern=1 3;strokeWidth=2;rounded=0;entryX=0.2;entryY=1.05;entryDx=0;entryDy=0;entryPerimeter=0;" parent="1" source="-IBQ6_1v04HYc0TYOD2F-19" target="-IBQ6_1v04HYc0TYOD2F-5" edge="1">
          <mxGeometry width="50" height="50" relative="1" as="geometry">
            <mxPoint x="290" y="360" as="sourcePoint" />
            <mxPoint x="380" y="290" as="targetPoint" />
          </mxGeometry>
        </mxCell>
        <mxCell id="-IBQ6_1v04HYc0TYOD2F-1" value="Start Program" style="rounded=1;whiteSpace=wrap;html=1;" parent="1" vertex="1">
          <mxGeometry x="378" y="60" width="95" height="30" as="geometry" />
        </mxCell>
        <mxCell id="-IBQ6_1v04HYc0TYOD2F-2" value="" style="endArrow=none;dashed=1;html=1;dashPattern=1 3;strokeWidth=2;rounded=0;entryX=0.5;entryY=1;entryDx=0;entryDy=0;" parent="1" target="-IBQ6_1v04HYc0TYOD2F-1" edge="1">
          <mxGeometry width="50" height="50" relative="1" as="geometry">
            <mxPoint x="426" y="130" as="sourcePoint" />
            <mxPoint x="450" y="380" as="targetPoint" />
          </mxGeometry>
        </mxCell>
        <mxCell id="-IBQ6_1v04HYc0TYOD2F-4" value="Tell user what program is about&amp;nbsp;" style="rounded=1;whiteSpace=wrap;html=1;" parent="1" vertex="1">
          <mxGeometry x="365.5" y="130" width="120" height="60" as="geometry" />
        </mxCell>
        <mxCell id="-IBQ6_1v04HYc0TYOD2F-6" value="" style="endArrow=none;dashed=1;html=1;dashPattern=1 3;strokeWidth=2;rounded=0;exitX=0.5;exitY=0;exitDx=0;exitDy=0;entryX=0.5;entryY=1;entryDx=0;entryDy=0;" parent="1" source="-IBQ6_1v04HYc0TYOD2F-5" target="-IBQ6_1v04HYc0TYOD2F-4" edge="1">
          <mxGeometry width="50" height="50" relative="1" as="geometry">
            <mxPoint x="400" y="430" as="sourcePoint" />
            <mxPoint x="410" y="200" as="targetPoint" />
          </mxGeometry>
        </mxCell>
        <mxCell id="-IBQ6_1v04HYc0TYOD2F-7" value="" style="endArrow=none;dashed=1;html=1;dashPattern=1 3;strokeWidth=2;rounded=0;entryX=0;entryY=1;entryDx=0;entryDy=0;" parent="1" source="-IBQ6_1v04HYc0TYOD2F-17" target="-IBQ6_1v04HYc0TYOD2F-5" edge="1">
          <mxGeometry width="50" height="50" relative="1" as="geometry">
            <mxPoint x="220" y="280" as="sourcePoint" />
            <mxPoint x="450" y="380" as="targetPoint" />
          </mxGeometry>
        </mxCell>
        <mxCell id="-IBQ6_1v04HYc0TYOD2F-9" value="" style="endArrow=none;dashed=1;html=1;dashPattern=1 3;strokeWidth=2;rounded=0;entryX=0.35;entryY=1.083;entryDx=0;entryDy=0;entryPerimeter=0;exitX=0.5;exitY=0;exitDx=0;exitDy=0;" parent="1" source="-IBQ6_1v04HYc0TYOD2F-20" target="-IBQ6_1v04HYc0TYOD2F-5" edge="1">
          <mxGeometry width="50" height="50" relative="1" as="geometry">
            <mxPoint x="410" y="350" as="sourcePoint" />
            <mxPoint x="450" y="380" as="targetPoint" />
          </mxGeometry>
        </mxCell>
        <mxCell id="-IBQ6_1v04HYc0TYOD2F-10" value="" style="endArrow=none;dashed=1;html=1;dashPattern=1 3;strokeWidth=2;rounded=0;entryX=0.6;entryY=0.967;entryDx=0;entryDy=0;entryPerimeter=0;exitX=0.5;exitY=0;exitDx=0;exitDy=0;" parent="1" source="-IBQ6_1v04HYc0TYOD2F-21" target="-IBQ6_1v04HYc0TYOD2F-5" edge="1">
          <mxGeometry width="50" height="50" relative="1" as="geometry">
            <mxPoint x="480" y="380" as="sourcePoint" />
            <mxPoint x="450" y="380" as="targetPoint" />
          </mxGeometry>
        </mxCell>
        <mxCell id="-IBQ6_1v04HYc0TYOD2F-11" value="" style="endArrow=none;dashed=1;html=1;dashPattern=1 3;strokeWidth=2;rounded=0;entryX=0.75;entryY=1;entryDx=0;entryDy=0;" parent="1" target="-IBQ6_1v04HYc0TYOD2F-5" edge="1">
          <mxGeometry width="50" height="50" relative="1" as="geometry">
            <mxPoint x="540" y="350" as="sourcePoint" />
            <mxPoint x="450" y="380" as="targetPoint" />
          </mxGeometry>
        </mxCell>
        <mxCell id="-IBQ6_1v04HYc0TYOD2F-12" value="" style="endArrow=none;dashed=1;html=1;dashPattern=1 3;strokeWidth=2;rounded=0;entryX=1;entryY=1;entryDx=0;entryDy=0;" parent="1" target="-IBQ6_1v04HYc0TYOD2F-5" edge="1">
          <mxGeometry width="50" height="50" relative="1" as="geometry">
            <mxPoint x="670" y="280" as="sourcePoint" />
            <mxPoint x="450" y="380" as="targetPoint" />
          </mxGeometry>
        </mxCell>
        <mxCell id="-IBQ6_1v04HYc0TYOD2F-13" value="Enter 6" style="rounded=1;whiteSpace=wrap;html=1;" parent="1" vertex="1">
          <mxGeometry x="540" y="260" width="80" height="40" as="geometry" />
        </mxCell>
        <mxCell id="-IBQ6_1v04HYc0TYOD2F-16" value="End Program" style="rounded=1;whiteSpace=wrap;html=1;" parent="1" vertex="1">
          <mxGeometry x="660" y="260" width="80" height="40" as="geometry" />
        </mxCell>
        <mxCell id="-IBQ6_1v04HYc0TYOD2F-18" value="" style="endArrow=none;dashed=1;html=1;dashPattern=1 3;strokeWidth=2;rounded=0;entryX=0;entryY=1;entryDx=0;entryDy=0;" parent="1" target="-IBQ6_1v04HYc0TYOD2F-17" edge="1">
          <mxGeometry width="50" height="50" relative="1" as="geometry">
            <mxPoint x="220" y="280" as="sourcePoint" />
            <mxPoint x="365" y="280" as="targetPoint" />
          </mxGeometry>
        </mxCell>
        <mxCell id="-IBQ6_1v04HYc0TYOD2F-17" value="Enter 1" style="rounded=1;whiteSpace=wrap;html=1;" parent="1" vertex="1">
          <mxGeometry x="200" y="260" width="80" height="40" as="geometry" />
        </mxCell>
        <mxCell id="-IBQ6_1v04HYc0TYOD2F-20" value="Enter 3" style="rounded=1;whiteSpace=wrap;html=1;" parent="1" vertex="1">
          <mxGeometry x="320" y="370" width="80" height="40" as="geometry" />
        </mxCell>
        <mxCell id="-IBQ6_1v04HYc0TYOD2F-21" value="Enter 4" style="rounded=1;whiteSpace=wrap;html=1;" parent="1" vertex="1">
          <mxGeometry x="440" y="370" width="80" height="40" as="geometry" />
        </mxCell>
        <mxCell id="-IBQ6_1v04HYc0TYOD2F-22" value="Enter 5" style="rounded=1;whiteSpace=wrap;html=1;" parent="1" vertex="1">
          <mxGeometry x="520" y="330" width="80" height="40" as="geometry" />
        </mxCell>
        <mxCell id="-IBQ6_1v04HYc0TYOD2F-23" value="" style="endArrow=none;dashed=1;html=1;dashPattern=1 3;strokeWidth=2;rounded=0;entryX=0;entryY=0.5;entryDx=0;entryDy=0;" parent="1" target="-IBQ6_1v04HYc0TYOD2F-17" edge="1">
          <mxGeometry width="50" height="50" relative="1" as="geometry">
            <mxPoint x="140" y="280" as="sourcePoint" />
            <mxPoint x="450" y="380" as="targetPoint" />
          </mxGeometry>
        </mxCell>
        <mxCell id="-IBQ6_1v04HYc0TYOD2F-24" value="call creation function, Prompt user to add in ID num, pizza toppings, and pizza size" style="rounded=1;whiteSpace=wrap;html=1;" parent="1" vertex="1">
          <mxGeometry x="20" y="210" width="120" height="140" as="geometry" />
        </mxCell>
        <mxCell id="-IBQ6_1v04HYc0TYOD2F-25" value="" style="endArrow=none;dashed=1;html=1;dashPattern=1 3;strokeWidth=2;rounded=0;exitX=0.5;exitY=0;exitDx=0;exitDy=0;" parent="1" source="-IBQ6_1v04HYc0TYOD2F-24" edge="1">
          <mxGeometry width="50" height="50" relative="1" as="geometry">
            <mxPoint x="400" y="430" as="sourcePoint" />
            <mxPoint x="80" y="160" as="targetPoint" />
          </mxGeometry>
        </mxCell>
        <mxCell id="-IBQ6_1v04HYc0TYOD2F-27" value="" style="endArrow=none;dashed=1;html=1;dashPattern=1 3;strokeWidth=2;rounded=0;exitX=0.992;exitY=0.117;exitDx=0;exitDy=0;exitPerimeter=0;" parent="1" source="-IBQ6_1v04HYc0TYOD2F-5" edge="1">
          <mxGeometry width="50" height="50" relative="1" as="geometry">
            <mxPoint x="500" y="250" as="sourcePoint" />
            <mxPoint x="530" y="180" as="targetPoint" />
          </mxGeometry>
        </mxCell>
        <mxCell id="-IBQ6_1v04HYc0TYOD2F-28" value="Enter other" style="rounded=1;whiteSpace=wrap;html=1;" parent="1" vertex="1">
          <mxGeometry x="520" y="150" width="80" height="40" as="geometry" />
        </mxCell>
        <mxCell id="-IBQ6_1v04HYc0TYOD2F-31" value="" style="shape=flexArrow;endArrow=classic;html=1;rounded=0;exitX=1;exitY=0.5;exitDx=0;exitDy=0;" parent="1" source="-IBQ6_1v04HYc0TYOD2F-28" target="-IBQ6_1v04HYc0TYOD2F-29" edge="1">
          <mxGeometry width="50" height="50" relative="1" as="geometry">
            <mxPoint x="400" y="430" as="sourcePoint" />
            <mxPoint x="450" y="380" as="targetPoint" />
            <Array as="points">
              <mxPoint x="660" y="170" />
            </Array>
          </mxGeometry>
        </mxCell>
        <mxCell id="-IBQ6_1v04HYc0TYOD2F-32" value="" style="shape=flexArrow;endArrow=classic;html=1;rounded=0;exitX=0;exitY=0.5;exitDx=0;exitDy=0;entryX=1;entryY=0.5;entryDx=0;entryDy=0;" parent="1" source="-IBQ6_1v04HYc0TYOD2F-29" target="-IBQ6_1v04HYc0TYOD2F-5" edge="1">
          <mxGeometry width="50" height="50" relative="1" as="geometry">
            <mxPoint x="230" y="560" as="sourcePoint" />
            <mxPoint x="290" y="590" as="targetPoint" />
            <Array as="points">
              <mxPoint x="560" y="250" />
            </Array>
          </mxGeometry>
        </mxCell>
        <mxCell id="-IBQ6_1v04HYc0TYOD2F-33" value="" style="shape=flexArrow;endArrow=classic;html=1;rounded=0;exitX=1;exitY=0.5;exitDx=0;exitDy=0;" parent="1" edge="1">
          <mxGeometry width="50" height="50" relative="1" as="geometry">
            <mxPoint x="125" y="140" as="sourcePoint" />
            <mxPoint x="360" y="230" as="targetPoint" />
            <Array as="points" />
          </mxGeometry>
        </mxCell>
        <mxCell id="-IBQ6_1v04HYc0TYOD2F-34" value="" style="endArrow=none;dashed=1;html=1;dashPattern=1 3;strokeWidth=2;rounded=0;entryX=0;entryY=1;entryDx=0;entryDy=0;" parent="1" target="-IBQ6_1v04HYc0TYOD2F-19" edge="1">
          <mxGeometry width="50" height="50" relative="1" as="geometry">
            <mxPoint x="190" y="400" as="sourcePoint" />
            <mxPoint x="450" y="380" as="targetPoint" />
          </mxGeometry>
        </mxCell>
        <mxCell id="-IBQ6_1v04HYc0TYOD2F-37" value="" style="shape=flexArrow;endArrow=classic;html=1;rounded=0;exitX=1.008;exitY=0.356;exitDx=0;exitDy=0;exitPerimeter=0;entryX=0.058;entryY=0.933;entryDx=0;entryDy=0;entryPerimeter=0;" parent="1" source="-IBQ6_1v04HYc0TYOD2F-35" target="-IBQ6_1v04HYc0TYOD2F-5" edge="1">
          <mxGeometry width="50" height="50" relative="1" as="geometry">
            <mxPoint x="400" y="430" as="sourcePoint" />
            <mxPoint x="450" y="380" as="targetPoint" />
          </mxGeometry>
        </mxCell>
        <mxCell id="-IBQ6_1v04HYc0TYOD2F-19" value="Enter 2" style="rounded=1;whiteSpace=wrap;html=1;" parent="1" vertex="1">
          <mxGeometry x="230" y="330" width="80" height="40" as="geometry" />
        </mxCell>
        <mxCell id="-IBQ6_1v04HYc0TYOD2F-5" value="Show menu" style="rounded=1;whiteSpace=wrap;html=1;" parent="1" vertex="1">
          <mxGeometry x="365" y="220" width="120" height="60" as="geometry" />
        </mxCell>
        <mxCell id="-IBQ6_1v04HYc0TYOD2F-29" value="Invalid, back to menu" style="rounded=1;whiteSpace=wrap;html=1;" parent="1" vertex="1">
          <mxGeometry x="620" y="200" width="80" height="40" as="geometry" />
        </mxCell>
        <mxCell id="-IBQ6_1v04HYc0TYOD2F-26" value="saved to three data bank classes, goes back to menu" style="rounded=1;whiteSpace=wrap;html=1;" parent="1" vertex="1">
          <mxGeometry x="35" y="100" width="90" height="60" as="geometry" />
        </mxCell>
        <mxCell id="-IBQ6_1v04HYc0TYOD2F-35" value="Call deletion function, prompt user for ID num, ask if theyre sure, then delete ONLY if they say yes" style="rounded=1;whiteSpace=wrap;html=1;" parent="1" vertex="1">
          <mxGeometry x="80" y="390" width="120" height="90" as="geometry" />
        </mxCell>
        <mxCell id="-IBQ6_1v04HYc0TYOD2F-38" value="" style="endArrow=none;dashed=1;html=1;dashPattern=1 3;strokeWidth=2;rounded=0;entryX=0.5;entryY=1;entryDx=0;entryDy=0;" parent="1" target="-IBQ6_1v04HYc0TYOD2F-20" edge="1">
          <mxGeometry width="50" height="50" relative="1" as="geometry">
            <mxPoint x="360" y="440" as="sourcePoint" />
            <mxPoint x="450" y="380" as="targetPoint" />
          </mxGeometry>
        </mxCell>
        <mxCell id="-IBQ6_1v04HYc0TYOD2F-39" value="Call check function, prompt user for ID number, then show pizza information from class" style="rounded=1;whiteSpace=wrap;html=1;" parent="1" vertex="1">
          <mxGeometry x="300" y="440" width="120" height="90" as="geometry" />
        </mxCell>
        <mxCell id="-IBQ6_1v04HYc0TYOD2F-40" value="" style="endArrow=none;dashed=1;html=1;dashPattern=1 3;strokeWidth=2;rounded=0;exitX=0;exitY=1;exitDx=0;exitDy=0;" parent="1" source="-IBQ6_1v04HYc0TYOD2F-39" edge="1">
          <mxGeometry width="50" height="50" relative="1" as="geometry">
            <mxPoint x="400" y="430" as="sourcePoint" />
            <mxPoint x="270" y="560" as="targetPoint" />
          </mxGeometry>
        </mxCell>
        <mxCell id="-IBQ6_1v04HYc0TYOD2F-41" value="If ID does not exist, then ask for it again using a while loop" style="rounded=1;whiteSpace=wrap;html=1;" parent="1" vertex="1">
          <mxGeometry x="190" y="550" width="90" height="80" as="geometry" />
        </mxCell>
        <mxCell id="-IBQ6_1v04HYc0TYOD2F-42" value="" style="endArrow=none;dashed=1;html=1;dashPattern=1 3;strokeWidth=2;rounded=0;exitX=0.5;exitY=1;exitDx=0;exitDy=0;" parent="1" source="-IBQ6_1v04HYc0TYOD2F-39" edge="1">
          <mxGeometry width="50" height="50" relative="1" as="geometry">
            <mxPoint x="400" y="430" as="sourcePoint" />
            <mxPoint x="360" y="560" as="targetPoint" />
          </mxGeometry>
        </mxCell>
        <mxCell id="-IBQ6_1v04HYc0TYOD2F-43" value="if found, go back to menu. Always have prompt to do so through sentinel" style="rounded=1;whiteSpace=wrap;html=1;" parent="1" vertex="1">
          <mxGeometry x="305" y="560" width="120" height="60" as="geometry" />
        </mxCell>
        <mxCell id="-IBQ6_1v04HYc0TYOD2F-45" value="go to editing function, prompt user for ID, if finished with classes, go back to menu, if not, allow user to finish order via class" style="rounded=1;whiteSpace=wrap;html=1;" parent="1" vertex="1">
          <mxGeometry x="510" y="427.5" width="120" height="142.5" as="geometry" />
        </mxCell>
        <mxCell id="-IBQ6_1v04HYc0TYOD2F-46" value="" style="endArrow=none;dashed=1;html=1;dashPattern=1 3;strokeWidth=2;rounded=0;entryX=0.838;entryY=1.05;entryDx=0;entryDy=0;entryPerimeter=0;exitX=0.083;exitY=-0.013;exitDx=0;exitDy=0;exitPerimeter=0;" parent="1" source="-IBQ6_1v04HYc0TYOD2F-45" target="-IBQ6_1v04HYc0TYOD2F-21" edge="1">
          <mxGeometry width="50" height="50" relative="1" as="geometry">
            <mxPoint x="400" y="430" as="sourcePoint" />
            <mxPoint x="450" y="380" as="targetPoint" />
          </mxGeometry>
        </mxCell>
        <mxCell id="-IBQ6_1v04HYc0TYOD2F-47" value="" style="endArrow=none;dashed=1;html=1;dashPattern=1 3;strokeWidth=2;rounded=0;entryX=1;entryY=0.5;entryDx=0;entryDy=0;" parent="1" target="-IBQ6_1v04HYc0TYOD2F-22" edge="1">
          <mxGeometry width="50" height="50" relative="1" as="geometry">
            <mxPoint x="650" y="360" as="sourcePoint" />
            <mxPoint x="450" y="380" as="targetPoint" />
          </mxGeometry>
        </mxCell>
        <mxCell id="-IBQ6_1v04HYc0TYOD2F-48" value="go to display function, and use a check function to see what &#39;accounts&#39; are completed. if not complete, it will be read out to the user.&amp;nbsp;" style="rounded=1;whiteSpace=wrap;html=1;" parent="1" vertex="1">
          <mxGeometry x="640" y="350" width="120" height="110" as="geometry" />
        </mxCell>
        <mxCell id="ntl_dSQ6v-YphLen_f3W-4" value="ALL will used linked lists to go between the different classes (ID num, Pizza topping, and Pizza size), doubly linked lists will be used to go between the three classes&amp;nbsp;" style="rounded=1;whiteSpace=wrap;html=1;" vertex="1" parent="1">
          <mxGeometry x="330" y="750" width="180" height="140" as="geometry" />
        </mxCell>
        <mxCell id="ntl_dSQ6v-YphLen_f3W-6" value="" style="shape=flexArrow;endArrow=classic;html=1;rounded=0;exitX=0.25;exitY=1;exitDx=0;exitDy=0;entryX=0.883;entryY=0.033;entryDx=0;entryDy=0;entryPerimeter=0;fillColor=light-dark(#60a917, #000000);strokeColor=#2D7600;" edge="1" parent="1" source="-IBQ6_1v04HYc0TYOD2F-21" target="ntl_dSQ6v-YphLen_f3W-4">
          <mxGeometry width="50" height="50" relative="1" as="geometry">
            <mxPoint x="400" y="530" as="sourcePoint" />
            <mxPoint x="450" y="480" as="targetPoint" />
          </mxGeometry>
        </mxCell>
        <mxCell id="ntl_dSQ6v-YphLen_f3W-11" value="if while loop for checking&amp;nbsp;" style="rounded=1;whiteSpace=wrap;html=1;" vertex="1" parent="1">
          <mxGeometry x="670" y="490" width="70" height="60" as="geometry" />
        </mxCell>
        <mxCell id="ntl_dSQ6v-YphLen_f3W-12" value="use an if/else statement for choice" style="rounded=1;whiteSpace=wrap;html=1;" vertex="1" parent="1">
          <mxGeometry x="90" y="500" width="70" height="60" as="geometry" />
        </mxCell>
        <mxCell id="ntl_dSQ6v-YphLen_f3W-13" value="" style="endArrow=none;dashed=1;html=1;dashPattern=1 3;strokeWidth=2;rounded=0;entryX=0.45;entryY=0.989;entryDx=0;entryDy=0;entryPerimeter=0;exitX=0.643;exitY=-0.067;exitDx=0;exitDy=0;exitPerimeter=0;" edge="1" parent="1" source="ntl_dSQ6v-YphLen_f3W-12" target="-IBQ6_1v04HYc0TYOD2F-35">
          <mxGeometry width="50" height="50" relative="1" as="geometry">
            <mxPoint x="400" y="530" as="sourcePoint" />
            <mxPoint x="450" y="480" as="targetPoint" />
          </mxGeometry>
        </mxCell>
        <mxCell id="ntl_dSQ6v-YphLen_f3W-14" value="" style="endArrow=none;dashed=1;html=1;dashPattern=1 3;strokeWidth=2;rounded=0;entryX=0.5;entryY=1;entryDx=0;entryDy=0;exitX=0.5;exitY=0;exitDx=0;exitDy=0;" edge="1" parent="1" source="ntl_dSQ6v-YphLen_f3W-11" target="-IBQ6_1v04HYc0TYOD2F-48">
          <mxGeometry width="50" height="50" relative="1" as="geometry">
            <mxPoint x="700" y="480" as="sourcePoint" />
            <mxPoint x="450" y="480" as="targetPoint" />
          </mxGeometry>
        </mxCell>
        <mxCell id="ntl_dSQ6v-YphLen_f3W-15" value="- Functions:&lt;div&gt;*All getter and setters for each info input&lt;/div&gt;&lt;div&gt;*basic function account inputters&lt;/div&gt;&lt;div&gt;*info input for editing, creating, and finishing orders&lt;/div&gt;&lt;div&gt;*if/and checkers to make sure that user puts proper input&lt;/div&gt;&lt;div&gt;*if/and checkers to see if user wants to end program/go to menu&lt;/div&gt;&lt;div&gt;*search function&lt;/div&gt;&lt;div&gt;*edit function w/ set/getter function for it&lt;/div&gt;&lt;div&gt;* creation function to create pizza orders&lt;/div&gt;&lt;div&gt;*deletion function to delete orders&lt;/div&gt;&lt;div&gt;*display function to display order given, could potentially use template&lt;/div&gt;&lt;div&gt;&lt;br&gt;&lt;/div&gt;&lt;div&gt;- Global Variables:&lt;/div&gt;&lt;div&gt;* int check to see if user wants to end program&lt;/div&gt;&lt;div&gt;* constant arrays for some basic pizza orders for user to edit/delete&lt;/div&gt;&lt;div&gt;* boon variable for checking ID numbers for searching function&lt;/div&gt;" style="rounded=1;whiteSpace=wrap;html=1;align=left;" vertex="1" parent="1">
          <mxGeometry x="10" y="670" width="290" height="380" as="geometry" />
        </mxCell>
      </root>
    </mxGraphModel>
  </diagram>
</mxfile>
